<svg width="51" height="57" viewBox="0 0 51 57" fill="none" xmlns="http://www.w3.org/2000/svg">
<g opacity="0.5">
<path d="M9.75171 15.6621V51.8091C9.75171 54.3184 11.786 56.3527 14.2953 56.3527H45.7202C48.2295 56.3527 50.2638 54.3184 50.2638 51.8091V15.6621H9.75171Z" fill="#D9D7D8"/>
<path d="M47.0459 4.13501H12.9694C11.1923 4.13501 9.75159 5.5757 9.75159 7.35282V15.6622L30.0076 19.4661L50.2636 15.6622V7.35282C50.2638 5.5757 48.8231 4.13501 47.0459 4.13501Z" fill="#FD6F71"/>
<path d="M13.1319 15.6622V7.35282C13.1319 5.5757 14.5726 4.13501 16.3498 4.13501H12.9695C11.1924 4.13501 9.75171 5.5757 9.75171 7.35282V15.6622L30.0077 19.4661L31.6979 19.1487L13.1319 15.6622Z" fill="#E36465"/>
<path d="M9.75168 15.6621C9.75168 15.6621 8.67674 36.672 1.21846 48.1004C0.454918 49.2703 1.28398 50.8197 2.68092 50.8197H36.3026C38.6353 50.8197 40.7961 49.6096 42.0305 47.6302C49.2178 36.1058 50.2637 15.6622 50.2637 15.6622H9.75168V15.6621Z" fill="#EFEDEE"/>
<path d="M4.5987 48.1004C12.057 36.672 13.1319 15.6621 13.1319 15.6621H9.75169C9.75169 15.6621 8.67675 36.6718 1.21846 48.1004C0.454918 49.2703 1.28398 50.8197 2.68092 50.8197H6.06115C4.66422 50.8197 3.83526 49.2703 4.5987 48.1004Z" fill="#D9D7D8"/>
<path d="M19.3711 0.352783C18.2189 0.352783 17.285 1.28674 17.285 2.43889V6.95794C17.285 8.1101 18.2189 9.04405 19.3711 9.04405C20.5232 9.04405 21.4572 8.1101 21.4572 6.95794V2.43889C21.4573 1.28674 20.5232 0.352783 19.3711 0.352783Z" fill="#596674"/>
<path d="M40.6442 0.352783C41.7964 0.352783 42.7303 1.28674 42.7303 2.43889V6.95794C42.7303 8.1101 41.7964 9.04405 40.6442 9.04405C39.4921 9.04405 38.5581 8.1101 38.5581 6.95794V2.43889C38.5581 1.28674 39.4921 0.352783 40.6442 0.352783Z" fill="#596674"/>
<path d="M18.5261 32.4623C18.0592 32.4623 17.681 32.0839 17.681 31.6172V29.8724C17.681 29.4057 18.0592 29.0273 18.5261 29.0273C18.9929 29.0273 19.3711 29.4057 19.3711 29.8724V31.6172C19.3711 32.0838 18.9929 32.4623 18.5261 32.4623Z" fill="#596674"/>
<path d="M35.2322 32.4623C34.7654 32.4623 34.3872 32.0839 34.3872 31.6172V29.8724C34.3872 29.4057 34.7654 29.0273 35.2322 29.0273C35.6991 29.0273 36.0773 29.4057 36.0773 29.8724V31.6172C36.0773 32.0838 35.6991 32.4623 35.2322 32.4623Z" fill="#596674"/>
<path d="M25.5908 32.4622C26.7622 32.4622 27.8613 32.9512 28.6068 33.8039C28.9139 34.1553 28.878 34.6892 28.5265 34.9963C28.1751 35.3034 27.6413 35.2675 27.3341 34.9162C26.9097 34.4307 26.2745 34.1522 25.5908 34.1522C24.9071 34.1522 24.2718 34.4307 23.8474 34.9161C23.5402 35.2675 23.0062 35.3034 22.655 34.9962C22.3036 34.689 22.2676 34.1552 22.5749 33.8038C23.3203 32.9513 24.4195 32.4622 25.5908 32.4622Z" fill="#596674"/>
</g>
</svg>
