<svg width="51" height="57" viewBox="0 0 51 57" fill="none" xmlns="http://www.w3.org/2000/svg">
<g opacity="0.5">
<path d="M9.50368 16.2422V52.3892C9.50368 54.8985 11.5379 56.9328 14.0472 56.9328H45.4722C47.9815 56.9328 50.0157 54.8985 50.0157 52.3892V16.2422H9.50368Z" fill="#D9D7D8"/>
<path d="M46.7979 4.71503H12.7214C10.9443 4.71503 9.50358 6.15571 9.50358 7.93284V16.2422L29.7596 20.0461L50.0156 16.2422V7.93284C50.0157 6.15571 48.5751 4.71503 46.7979 4.71503Z" fill="#FD6F71"/>
<path d="M12.8839 16.2422V7.93284C12.8839 6.15571 14.3246 4.71503 16.1017 4.71503H12.7215C10.9444 4.71503 9.50368 6.15571 9.50368 7.93284V16.2422L29.7597 20.0461L31.4499 19.7287L12.8839 16.2422Z" fill="#E36465"/>
<path d="M9.50368 16.2422C9.50368 16.2422 8.42875 37.252 0.970467 48.6805C0.206921 49.8504 1.03598 51.3998 2.43292 51.3998H36.0546C38.3873 51.3998 40.5481 50.1897 41.7825 48.2103C48.9698 36.6859 50.0157 16.2423 50.0157 16.2423H9.50368V16.2422Z" fill="#EFEDEE"/>
<path d="M4.3507 48.6805C11.809 37.252 12.8839 16.2422 12.8839 16.2422H9.50369C9.50369 16.2422 8.42875 37.2519 0.970468 48.6805C0.206921 49.8504 1.03598 51.3998 2.43292 51.3998H5.81316C4.41622 51.3998 3.58727 49.8504 4.3507 48.6805Z" fill="#D9D7D8"/>
<path d="M19.1231 0.932739C17.971 0.932739 17.037 1.86669 17.037 3.01885V7.5379C17.037 8.69005 17.971 9.624 19.1231 9.624C20.2753 9.624 21.2092 8.69005 21.2092 7.5379V3.01885C21.2093 1.86669 20.2753 0.932739 19.1231 0.932739Z" fill="#596674"/>
<path d="M40.3962 0.932739C41.5484 0.932739 42.4823 1.86669 42.4823 3.01885V7.5379C42.4823 8.69005 41.5484 9.624 40.3962 9.624C39.2441 9.624 38.3101 8.69005 38.3101 7.5379V3.01885C38.3101 1.86669 39.2441 0.932739 40.3962 0.932739Z" fill="#596674"/>
<path d="M18.2781 33.0422C17.8113 33.0422 17.4331 32.6638 17.4331 32.1971V30.4523C17.4331 29.9856 17.8113 29.6073 18.2781 29.6073C18.7449 29.6073 19.1231 29.9856 19.1231 30.4523V32.1971C19.1231 32.6637 18.7449 33.0422 18.2781 33.0422Z" fill="#596674"/>
<path d="M34.9842 33.0422C34.5174 33.0422 34.1392 32.6638 34.1392 32.1971V30.4523C34.1392 29.9856 34.5174 29.6073 34.9842 29.6073C35.451 29.6073 35.8293 29.9856 35.8293 30.4523V32.1971C35.8293 32.6637 35.451 33.0422 34.9842 33.0422Z" fill="#596674"/>
<path d="M25.3428 33.0422C26.5142 33.0422 27.6133 33.5312 28.3588 34.3839C28.6659 34.7353 28.63 35.2692 28.2785 35.5763C27.9271 35.8834 27.3933 35.8476 27.0861 35.4962C26.6617 35.0107 26.0265 34.7322 25.3428 34.7322C24.6591 34.7322 24.0238 35.0107 23.5994 35.4961C23.2922 35.8476 22.7582 35.8834 22.407 35.5762C22.0556 35.2691 22.0196 34.7352 22.3269 34.3838C23.0723 33.5313 24.1715 33.0422 25.3428 33.0422Z" fill="#596674"/>
</g>
</svg>
